<?xml version="1.0" encoding="UTF-8"?>
<svg width="138px" height="233px" viewBox="0 0 138 233" version="1.1" xmlns="http://www.w3.org/2000/svg" xmlns:xlink="http://www.w3.org/1999/xlink">
    <!-- Generator: Sketch 41.2 (35397) - http://www.bohemiancoding.com/sketch -->
    <title>Group</title>
    <desc>Created with Sketch.</desc>
    <defs></defs>
    <g id="Page-1" stroke="none" stroke-width="1" fill="none" fill-rule="evenodd">
        <g id="Artboard" transform="translate(-7.000000, -44.000000)" stroke="#979797" fill="#F9F7F1">
            <g id="Group" transform="translate(0.000000, 45.000000)">
                <path d="M148.066406,1.6953125 C119.621094,1.6953125 116.632813,20.3789063 116.632813,20.3789063 L92.7226563,84.1914063 C92.7226563,84.1914063 93.4765625,91.7382813 101.304688,91.7382813 C109.132812,91.7382813 105.515625,99.6835938 105.515625,99.6835938 L71.015625,221.96875 C71.015625,221.96875 119.117188,232.480469 140.546875,232.480469" id="Path" transform="translate(109.541016, 117.087891) scale(-1, 1) rotate(-2.000000) translate(-109.541016, -117.087891) "></path>
                <path d="M81.0664063,1.6953125 C52.6210938,1.6953125 49.6328125,20.3789063 49.6328125,20.3789063 L25.7226563,84.1914063 C25.7226563,84.1914063 26.4765625,91.7382813 34.3046875,91.7382813 C42.1328125,91.7382813 38.515625,99.6835938 38.515625,99.6835938 L4.015625,221.96875 C4.015625,221.96875 52.1171875,232.480469 73.546875,232.480469" id="Path" transform="translate(42.541016, 117.087891) rotate(-2.000000) translate(-42.541016, -117.087891) "></path>
            </g>
        </g>
    </g>
</svg>